<svg width="1965" height="478" viewBox="0 0 1965 478" fill="none" xmlns="http://www.w3.org/2000/svg">
<path d="M309.171 45.8877L31.9688 356.565" stroke="black" stroke-width="14.182"/>
<path d="M613.078 111.332L31.9688 356.564" stroke="black" stroke-width="14.182"/>
<path d="M313.309 435.174L31.2168 356.94" stroke="black" stroke-width="14.182"/>
<path d="M316.694 42.877L226.049 278.706" stroke="black" stroke-width="14.182"/>
<path d="M327.226 429.156L227.93 275.698" stroke="black" stroke-width="14.182"/>
<path d="M315.941 32.7227L613.83 89.141" stroke="black" stroke-width="14.182"/>
<path d="M315.191 29.3369L590.137 248.992" stroke="black" stroke-width="14.182"/>
<path d="M634.143 133.523L589.385 250.121" stroke="black" stroke-width="14.182"/>
<path d="M320.084 26.7051L335.129 444.953" stroke="black" stroke-width="14.182"/>
<path d="M623.985 122.24L333.242 443.825" stroke="black" stroke-width="14.182"/>
<path d="M570.577 264.038L346.408 432.917" stroke="black" stroke-width="14.182"/>
<circle cx="652.57" cy="95.5343" r="58.299" fill="#FFC107"/>
<circle cx="334.557" cy="433.857" r="43.4421" fill="#2196F4"/>
<circle cx="320.646" cy="31.4062" r="31.4062" fill="#F34335"/>
<circle cx="226.617" cy="274.005" r="31.4062" fill="#9C27AF"/>
<circle cx="31.4062" cy="357.88" r="31.4062" fill="#F34335"/>
<circle cx="589.947" cy="254.071" r="31.4062" fill="#8BC349"/>
<path d="M797.657 204V55.0893H826.162L889.556 160.178H874.452L936.782 55.0893H965.075L965.5 204H933.165L932.953 104.655H938.909L889.13 188.258H873.601L822.759 104.655H829.991V204H797.657ZM1032.53 115.079H1104.22V141.883H1032.53V115.079ZM1035.08 176.345H1116.13V204H1000.83V55.0893H1113.36V82.7441H1035.08V176.345ZM1192.48 206.553C1180.56 206.553 1169.15 204.993 1158.23 201.873C1147.31 198.611 1138.52 194.427 1131.85 189.322L1143.55 163.369C1149.93 167.907 1157.45 171.665 1166.1 174.643C1174.89 177.48 1183.76 178.898 1192.69 178.898C1199.5 178.898 1204.96 178.26 1209.07 176.983C1213.33 175.565 1216.45 173.651 1218.43 171.24C1220.42 168.829 1221.41 166.063 1221.41 162.943C1221.41 158.972 1219.85 155.852 1216.73 153.583C1213.61 151.172 1209.5 149.258 1204.39 147.839C1199.29 146.279 1193.61 144.861 1187.37 143.585C1181.27 142.167 1175.1 140.465 1168.86 138.479C1162.77 136.494 1157.16 133.941 1152.06 130.821C1146.95 127.701 1142.77 123.588 1139.51 118.483C1136.39 113.377 1134.83 106.853 1134.83 98.9116C1134.83 90.4024 1137.1 82.6732 1141.64 75.724C1146.32 68.633 1153.26 63.0312 1162.48 58.9184C1171.84 54.6638 1183.54 52.5365 1197.58 52.5365C1206.94 52.5365 1216.16 53.6711 1225.24 55.9402C1234.31 58.0675 1242.33 61.3293 1249.28 65.7257L1238.64 91.8915C1231.69 87.9205 1224.74 85.0132 1217.79 83.1696C1210.84 81.1841 1204.04 80.1914 1197.37 80.1914C1190.7 80.1914 1185.24 80.9714 1180.99 82.5314C1176.74 84.0914 1173.69 86.1478 1171.84 88.7005C1170 91.1115 1169.08 93.9479 1169.08 97.2097C1169.08 101.039 1170.64 104.159 1173.76 106.57C1176.88 108.839 1180.99 110.683 1186.1 112.101C1191.2 113.519 1196.8 114.937 1202.9 116.355C1209.14 117.774 1215.31 119.405 1221.41 121.248C1227.65 123.092 1233.32 125.574 1238.43 128.694C1243.53 131.814 1247.65 135.927 1250.77 141.032C1254.03 146.138 1255.66 152.59 1255.66 160.39C1255.66 168.758 1253.32 176.416 1248.64 183.365C1243.96 190.314 1236.94 195.916 1227.58 200.171C1218.36 204.425 1206.66 206.553 1192.48 206.553ZM1351.53 206.553C1339.76 206.553 1328.84 204.638 1318.77 200.809C1308.85 196.98 1300.2 191.591 1292.82 184.642C1285.59 177.692 1279.92 169.538 1275.8 160.178C1271.83 150.818 1269.85 140.607 1269.85 129.545C1269.85 118.483 1271.83 108.272 1275.8 98.9116C1279.92 89.5515 1285.66 81.3968 1293.03 74.4477C1300.41 67.4985 1309.06 62.1093 1318.99 58.2802C1328.91 54.4511 1339.69 52.5365 1351.32 52.5365C1363.09 52.5365 1373.87 54.4511 1383.66 58.2802C1393.58 62.1093 1402.16 67.4985 1409.4 74.4477C1416.77 81.3968 1422.52 89.5515 1426.63 98.9116C1430.74 108.13 1432.8 118.341 1432.8 129.545C1432.8 140.607 1430.74 150.889 1426.63 160.39C1422.52 169.751 1416.77 177.905 1409.4 184.854C1402.16 191.662 1393.58 196.98 1383.66 200.809C1373.87 204.638 1363.16 206.553 1351.53 206.553ZM1351.32 177.196C1357.99 177.196 1364.09 176.062 1369.62 173.792C1375.29 171.523 1380.25 168.261 1384.51 164.007C1388.76 159.752 1392.02 154.718 1394.29 148.903C1396.7 143.088 1397.91 136.636 1397.91 129.545C1397.91 122.454 1396.7 116.001 1394.29 110.186C1392.02 104.372 1388.76 99.337 1384.51 95.0824C1380.39 90.8278 1375.5 87.566 1369.83 85.2969C1364.16 83.0278 1357.99 81.8932 1351.32 81.8932C1344.66 81.8932 1338.49 83.0278 1332.81 85.2969C1327.28 87.566 1322.39 90.8278 1318.14 95.0824C1313.88 99.337 1310.55 104.372 1308.14 110.186C1305.87 116.001 1304.73 122.454 1304.73 129.545C1304.73 136.494 1305.87 142.947 1308.14 148.903C1310.55 154.718 1313.81 159.752 1317.92 164.007C1322.18 168.261 1327.14 171.523 1332.81 173.792C1338.49 176.062 1344.66 177.196 1351.32 177.196ZM1458.7 204V55.0893H1487.2L1575.06 162.305H1561.23V55.0893H1595.27V204H1566.98L1478.91 96.7843H1492.73V204H1458.7ZM1640.71 205.702C1635.04 205.702 1630.15 203.787 1626.03 199.958C1622.06 195.987 1620.08 190.953 1620.08 184.854C1620.08 178.756 1622.06 173.863 1626.03 170.176C1630.15 166.347 1635.04 164.432 1640.71 164.432C1646.53 164.432 1651.42 166.347 1655.39 170.176C1659.36 173.863 1661.35 178.756 1661.35 184.854C1661.35 190.953 1659.36 195.987 1655.39 199.958C1651.42 203.787 1646.53 205.702 1640.71 205.702ZM797.657 427V278.089H826.162L914.02 385.305H900.192V278.089H934.229V427H905.936L817.866 319.784H831.693V427H797.657ZM1001.16 338.079H1072.85V364.883H1001.16V338.079ZM1003.71 399.345H1084.76V427H969.461V278.089H1081.99V305.744H1003.71V399.345ZM1143.03 427V306.17H1095.37V278.089H1225.14V306.17H1177.49V427H1143.03ZM1276.51 427L1227.8 278.089H1263.54L1305.87 409.982H1288L1332.25 278.089H1364.16L1406.7 409.982H1389.47L1432.87 278.089H1465.84L1417.13 427H1380.11L1342.46 311.275H1352.24L1313.53 427H1276.51ZM1555.75 429.553C1543.98 429.553 1533.06 427.638 1522.99 423.809C1513.06 419.98 1504.41 414.591 1497.03 407.642C1489.8 400.692 1484.13 392.538 1480.02 383.178C1476.04 373.818 1474.06 363.607 1474.06 352.545C1474.06 341.483 1476.04 331.272 1480.02 321.912C1484.13 312.551 1489.87 304.397 1497.25 297.448C1504.62 290.498 1513.27 285.109 1523.2 281.28C1533.13 277.451 1543.9 275.537 1555.53 275.537C1567.31 275.537 1578.08 277.451 1587.87 281.28C1597.8 285.109 1606.38 290.498 1613.61 297.448C1620.98 304.397 1626.73 312.551 1630.84 321.912C1634.95 331.13 1637.01 341.341 1637.01 352.545C1637.01 363.607 1634.95 373.889 1630.84 383.39C1626.73 392.751 1620.98 400.905 1613.61 407.854C1606.38 414.662 1597.8 419.98 1587.87 423.809C1578.08 427.638 1567.38 429.553 1555.75 429.553ZM1555.53 400.196C1562.2 400.196 1568.3 399.062 1573.83 396.792C1579.5 394.523 1584.47 391.261 1588.72 387.007C1592.97 382.752 1596.24 377.718 1598.51 371.903C1600.92 366.088 1602.12 359.636 1602.12 352.545C1602.12 345.454 1600.92 339.001 1598.51 333.186C1596.24 327.372 1592.97 322.337 1588.72 318.082C1584.61 313.828 1579.71 310.566 1574.04 308.297C1568.37 306.028 1562.2 304.893 1555.53 304.893C1548.87 304.893 1542.7 306.028 1537.03 308.297C1531.5 310.566 1526.6 313.828 1522.35 318.082C1518.09 322.337 1514.76 327.372 1512.35 333.186C1510.08 339.001 1508.95 345.454 1508.95 352.545C1508.95 359.494 1510.08 365.947 1512.35 371.903C1514.76 377.718 1518.02 382.752 1522.14 387.007C1526.39 391.261 1531.35 394.523 1537.03 396.792C1542.7 399.062 1548.87 400.196 1555.53 400.196ZM1662.91 427V278.089H1727.37C1740.7 278.089 1752.18 280.287 1761.83 284.684C1771.47 288.938 1778.92 295.108 1784.17 303.191C1789.41 311.275 1792.04 320.919 1792.04 332.123C1792.04 343.185 1789.41 352.757 1784.17 360.841C1778.92 368.783 1771.47 374.881 1761.83 379.136C1752.18 383.39 1740.7 385.518 1727.37 385.518H1682.06L1697.37 370.414V427H1662.91ZM1757.57 427L1720.35 372.967H1757.15L1794.8 427H1757.57ZM1697.37 374.243L1682.06 358.076H1725.45C1736.09 358.076 1744.03 355.806 1749.28 351.268C1754.52 346.588 1757.15 340.206 1757.15 332.123C1757.15 323.897 1754.52 317.515 1749.28 312.977C1744.03 308.439 1736.09 306.17 1725.45 306.17H1682.06L1697.37 289.789V374.243ZM1850.19 392.963L1848.27 353.183L1919.54 278.089H1957.83L1893.58 347.226L1874.44 367.648L1850.19 392.963ZM1819.34 427V278.089H1853.59V427H1819.34ZM1921.24 427L1868.27 362.117L1890.82 337.654L1961.44 427H1921.24Z" fill="black"/>
</svg>
